Coordinates
version=1
nRows=13
nColumns=40
inDegrees=yes

Units are S.I. units (second, meters, Newtons, ...)
If the header above contains a line with 'inDegrees', this indicates whether rotational values are in degrees (yes) or radians (no).

endheader
time	pelvis_tilt	pelvis_list	pelvis_rotation	pelvis_tx	pelvis_ty	pelvis_tz	hip_flexion_r	hip_adduction_r	hip_rotation_r	knee_angle_r	knee_angle_r_beta	ankle_angle_r	subtalar_angle_r	mtp_angle_r	hip_flexion_l	hip_adduction_l	hip_rotation_l	knee_angle_l	knee_angle_l_beta	ankle_angle_l	subtalar_angle_l	mtp_angle_l	lumbar_extension	lumbar_bending	lumbar_rotation	arm_flex_r	arm_add_r	arm_rot_r	elbow_flex_r	pro_sup_r	wrist_flex_r	wrist_dev_r	arm_flex_l	arm_add_l	arm_rot_l	elbow_flex_l	pro_sup_l	wrist_flex_l	wrist_dev_l
      1.44000000	      3.87528058	      7.98614548	    -88.93181269	      0.25465917	      0.84808883	      1.42448769	      0.09918873	    -11.79134637	    -12.94580575	     48.49857769	      0.84645986	    -24.61892677	      0.00000000	      0.00000000	     29.49619707	      5.86873310	     -3.58190417	     28.08561089	      0.49018638	     -0.97821494	      0.00000000	      0.00000000	      2.10397102	     -5.27919025	      3.40222816	      0.47892332	     -5.72809876	      9.17124610	     34.29611701	     89.13741528	    -26.02500898	      3.94658738	     -5.81166713	     -9.15549361	     14.44487509	     26.42503903	     89.15016081	    -20.99354991	      4.44448304
      1.45000000	      3.93597584	      8.24831896	    -89.01148640	      0.25670748	      0.84917266	      1.43485926	      2.27345587	    -12.41455093	    -12.18445794	     51.26599491	      0.89476041	    -23.97519118	      0.00000000	      0.00000000	     28.84460596	      6.13522603	     -3.45960609	     27.84453329	      0.48597878	     -0.21580656	      0.00000000	      0.00000000	      2.42444671	     -5.14302603	      2.91272748	      0.12204165	     -5.60470199	      9.62133840	     32.58856783	     89.13676830	    -25.69375386	      4.93457754	     -4.76823094	     -9.06996622	     15.22868676	     26.82351892	     89.15091907	    -22.07169117	      4.02090322
      1.46000000	      3.80487317	      7.94453654	    -88.99912532	      0.25857175	      0.85126647	      1.44506948	      3.75632906	    -12.72414335	    -11.54193712	     53.55007404	      0.93462511	    -23.27586174	      0.00000000	      0.00000000	     27.49265871	      6.22986430	     -3.13221194	     27.42251557	      0.47861319	      0.50239053	      0.00000000	      0.00000000	      2.02321502	     -4.77450457	      2.31657087	     -0.17384867	     -5.46810581	      9.62137981	     31.10641127	     89.14863576	    -25.61159184	      5.36521132	     -3.63227249	     -9.00068153	     15.61218036	     27.45866330	     89.17324437	    -22.16653673	      3.86810407
      1.47000000	      3.98470541	      8.24488176	    -89.15200353	      0.26038804	      0.85250034	      1.45526280	      6.00343175	    -13.41032409	    -10.84930946	     55.86596189	      0.97504497	    -21.61946637	      0.00000000	      0.00000000	     26.74236639	      6.54766395	     -3.26191033	     26.83364929	      0.46833553	      0.87255156	      0.00000000	      0.00000000	      2.41504142	     -4.75897185	      1.85122319	     -0.53565379	     -5.40454794	     10.23767585	     29.57237414	     89.13367718	    -25.32807594	      6.39060200	     -2.61264401	     -9.04013956	     16.41242928	     28.06808993	     89.17191793	    -22.86917442	      3.67893017
      1.48000000	      3.79918088	      8.25378080	    -89.17066997	      0.26202833	      0.85431505	      1.46525147	      7.84712274	    -13.57822974	    -10.29749814	     57.65199668	      1.00621716	    -20.13734229	      0.00000000	      0.00000000	     25.68437825	      6.52976796	     -3.10211823	     26.26330501	      0.45838114	      1.33778256	      0.00000000	      0.00000000	      2.42298830	     -4.34291706	      1.29165982	     -0.93890067	     -5.34610731	     10.21987181	     28.36902160	     89.13513128	    -25.18925414	      7.07556738	     -1.54179430	     -9.03793555	     16.86943605	     28.81900108	     89.18308552	    -23.40313092	      3.44812663
      1.49000000	      3.45475601	      8.11044584	    -89.13851949	      0.26380440	      0.85645719	      1.47503850	      9.50196029	    -13.53655396	     -9.82319038	     59.05128084	      1.03063928	    -18.88582632	      0.00000000	      0.00000000	     24.41714106	      6.37420619	     -2.84185131	     25.55426346	      0.44600604	      1.69907962	      0.00000000	      0.00000000	      2.20923053	     -3.70199644	      0.57823408	     -1.27410912	     -5.34113242	      9.98728325	     27.35712559	     89.12982053	    -25.17884553	      7.44834469	     -0.50269159	     -9.02242150	     17.16760119	     29.65117819	     89.20123640	    -23.56563637	      3.27886444
      1.50000000	      3.18655304	      8.13656832	    -89.14830821	      0.26537108	      0.85829976	      1.48490568	     11.26188788	    -13.55816282	     -9.50191377	     60.16722132	      1.05011611	    -16.87359791	      0.00000000	      0.00000000	     23.33056944	      6.24551006	     -2.73001805	     24.84209480	      0.43357635	      1.97550307	      0.00000000	      0.00000000	      2.26670571	     -3.17136918	      0.00961676	     -1.73548002	     -5.35018217	      9.74023616	     26.47077409	     89.12502581	    -25.17687812	      7.95956649	      0.51110732	     -9.07778901	     17.51594448	     30.60233944	     89.21528520	    -23.88026911	      3.09712785
      1.51000000	      2.92715483	      8.63550645	    -89.11773421	      0.26708053	      0.85935872	      1.49438891	     13.60211591	    -13.60010928	     -9.24401790	     61.11213021	      1.06660789	    -15.08028170	      0.00000000	      0.00000000	     22.84224213	      6.14127646	     -2.64397060	     24.22975082	      0.42288893	      2.13458140	      0.00000000	      0.00000000	      2.84815463	     -2.64110670	     -0.62566149	     -2.39294572	     -5.42407525	      8.99716822	     26.22392249	     89.13471446	    -24.85838257	      9.27257792	      1.48089508	     -9.11848684	     18.10347157	     31.42960684	     89.21724842	    -25.59743210	      2.63586300
      1.52000000	      2.47509654	      8.53840451	    -89.03272245	      0.26858679	      0.86137725	      1.50401201	     15.08367567	    -13.36149206	     -9.20874440	     61.43491039	      1.07224146	    -13.39881901	      0.00000000	      0.00000000	     21.63528842	      5.82131248	     -2.49338209	     23.49070707	      0.40999018	      2.32993054	      0.00000000	      0.00000000	      2.73973149	     -1.89374407	     -1.31434119	     -2.89473716	     -5.52664002	      8.48304874	     25.78811823	     89.11855634	    -24.84066136	      9.43889427	      2.48775148	     -9.19427666	     18.26854841	     32.44922048	     89.22746266	    -25.80271912	      2.34115550
      1.53000000	      2.03194815	      8.52327289	    -88.94477586	      0.27004144	      0.86323229	      1.51342709	     16.64152731	    -13.10442692	     -9.22290386	     61.45153723	      1.07253166	    -12.07585136	      0.00000000	      0.00000000	     20.51690116	      5.50436578	     -2.34358542	     22.70063695	      0.39620086	      2.44987234	      0.00000000	      0.00000000	      2.70995002	     -1.15865069	     -2.01594953	     -3.40334303	     -5.66753241	      7.95120565	     25.53184628	     89.09373518	    -24.89112052	      9.55099774	      3.47433490	     -9.31783574	     18.39824822	     33.54534366	     89.23824659	    -25.92962928	      2.11209910
      1.54000000	      1.53506310	      8.51494419	    -88.72932292	      0.27162406	      0.86484571	      1.52275195	     18.05614658	    -12.84094829	     -9.56498894	     61.16351367	      1.06750470	    -10.31712528	      0.00000000	      0.00000000	     19.50846796	      5.14226696	     -2.19253545	     22.11513042	      0.38598184	      2.66589221	      0.00000000	      0.00000000	      2.67445934	     -0.36398479	     -2.75398587	     -4.13283679	     -5.76728637	      6.48735545	     25.87759920	     89.09807616	    -24.98187709	      9.68244769	      4.47327014	     -9.38975036	     18.34741457	     34.66940076	     89.24881050	    -26.30113667	      1.83435524
      1.55000000	      1.11903800	      8.57590713	    -88.61682717	      0.27303005	      0.86630483	      1.53209445	     19.55497361	    -12.60791477	     -9.81256714	     60.58801268	      1.05746031	     -9.36059392	      0.00000000	      0.00000000	     18.48524327	      4.83106817	     -2.13626158	     21.31546779	      0.37202509	      2.73134706	      0.00000000	      0.00000000	      2.76601974	      0.33815969	     -3.42311683	     -4.70627202	     -5.96842478	      5.96609868	     25.87454138	     89.06892618	    -25.01110903	      9.71152990	      5.41424258	     -9.58493092	     18.51807731	     35.88153573	     89.25486919	    -26.36967423	      1.61333959
      1.56000000	      0.52397388	      8.51627481	    -88.21683290	      0.27449922	      0.86769761	      1.54123393	     20.66567793	    -12.21880435	    -10.49988199	     59.60447904	      1.04029441	     -7.90284271	      0.00000000	      0.00000000	     17.49439413	      4.36732805	     -1.81426285	     20.81855205	      0.36335228	      2.97646356	      0.00000000	      0.00000000	      2.65793958	      1.19805411	     -4.20934462	     -5.54910863	     -6.02345156	      4.09791338	     26.64032354	     89.08021865	    -25.02245277	      9.61868132	      6.44784853	     -9.69352952	     18.33971186	     37.06834340	     89.26419130	    -26.61277830	      1.37243592
